<svg id="Capa_1" data-name="Capa 1" xmlns="http://www.w3.org/2000/svg" viewBox="0 0 151 44"><title>LOGO forma</title><polygon points="6.51 3.59 6.51 21.07 20.03 21.07 20.03 35.35 37.05 35.35 37.05 3.59 6.51 3.59" style="fill:#e95a5c;stroke:#1d1d1b;stroke-width:0.9253px"/><path d="M1.52,23.73V40.19H17.73V23.73Zm9.12,14.13H7.55l1.92-4.3-4.2-.1,3-7.4H11.6L9.68,30.57H14Z" style="fill:#e95a5c;stroke:#1d1d1b;stroke-width:0.9253px"/><line x1="43.13" y1="0.45" x2="43.13" y2="43.55" style="fill:#be1622;stroke:#1d1d1b;stroke-width:2px"/><path d="M52.32,31.79a5.34,5.34,0,0,1-2.9-.8,6,6,0,0,1-2.06-2.14,6.07,6.07,0,0,1-.75-3l0-9.1a5.83,5.83,0,0,1,.74-2.93,5.71,5.71,0,0,1,2-2.13,5.34,5.34,0,0,1,2.9-.8,5.47,5.47,0,0,1,2.89.78,5.93,5.93,0,0,1,2,2.12,5.8,5.8,0,0,1,.76,3v1.34c0,.08,0,.11-.12.11H54.63c-.08,0-.12,0-.12-.11V16.75a2.43,2.43,0,0,0-.63-1.67,2,2,0,0,0-1.56-.7,1.89,1.89,0,0,0-1.6.72,2.61,2.61,0,0,0-.56,1.65v9.1a2.46,2.46,0,0,0,.63,1.75,2,2,0,0,0,1.53.67,2,2,0,0,0,1.56-.75,2.5,2.5,0,0,0,.63-1.67V24.5c0-.07,0-.11.12-.11h3.29c.08,0,.12,0,.12.11v1.35a6,6,0,0,1-.77,3A6.13,6.13,0,0,1,55.21,31,5.31,5.31,0,0,1,52.32,31.79Z"/><path d="M59.09,31.36l3.61-20a.13.13,0,0,1,.15-.11h4.23a.12.12,0,0,1,.14.11l3.47,20c0,.09,0,.14-.11.14H67.34c-.08,0-.13-.05-.15-.14l-.32-2.13h-4l-.32,2.13c0,.09-.07.14-.15.14H59.2C59.13,31.5,59.09,31.45,59.09,31.36Zm4.4-5.25h2.8l-1.19-8.2-.18-1.08-.12,1.08Z"/><path d="M72.65,31.5c-.08,0-.12-.05-.12-.14l0-20c0-.1,0-.14.15-.14h3.23c.1,0,.15,0,.15.14l0,16.57h6a.12.12,0,0,1,.14.14v3.3a.13.13,0,0,1-.14.14Z"/><path d="M83.12,31.36l3.61-20a.13.13,0,0,1,.15-.11h4.23a.12.12,0,0,1,.14.11l3.47,20c0,.09,0,.14-.11.14H91.37c-.08,0-.13-.05-.15-.14l-.32-2.13h-4l-.32,2.13c0,.09-.07.14-.15.14H83.23C83.16,31.5,83.12,31.45,83.12,31.36Zm4.4-5.25h2.8l-1.2-8.2L89,16.83l-.12,1.08Z"/><path d="M96.68,31.5c-.08,0-.12-.05-.12-.14l.06-20c0-.08,0-.11.12-.11h3.55a.25.25,0,0,1,.21.11l2.65,3.85,2.66-3.85a.22.22,0,0,1,.2-.11h3.59a.1.1,0,0,1,.11.11l.06,20c0,.09,0,.14-.12.14h-3.29c-.08,0-.12-.05-.12-.14l0-14.88-3.06,4.44-3-4.44,0,14.88c0,.09,0,.14-.12.14Z"/><path d="M112.34,31.5c-.08,0-.12-.05-.12-.14l.06-20c0-.08,0-.11.12-.11H118a5.57,5.57,0,0,1,3,.8A6,6,0,0,1,123,14.12,5.69,5.69,0,0,1,123.8,17a4.9,4.9,0,0,1-.57,2.33,5.69,5.69,0,0,1-1.36,1.75,6,6,0,0,1,1.31,2,5.78,5.78,0,0,1,.47,2.33,6,6,0,0,1-.82,3.09,6.11,6.11,0,0,1-2.2,2.23,5.8,5.8,0,0,1-3.07.83ZM115.75,28h1.81a2.41,2.41,0,0,0,1.8-.78,2.58,2.58,0,0,0-1.8-4.39h-1.78Zm0-8.7H118a2.08,2.08,0,0,0,1.65-.71,2.33,2.33,0,0,0,.63-1.56,2.28,2.28,0,0,0-.67-1.62,2.19,2.19,0,0,0-1.61-.68h-2.21Z"/><path d="M125.87,31.5c-.08,0-.12-.05-.12-.14l.06-20c0-.08,0-.11.12-.11h5.89a5.62,5.62,0,0,1,2.9.77,5.82,5.82,0,0,1,2.11,2.07,5.48,5.48,0,0,1,.79,2.93,5.6,5.6,0,0,1-.32,1.94,6.43,6.43,0,0,1-.76,1.46,4.9,4.9,0,0,1-.79.89,5.93,5.93,0,0,1,1.58,4.11l0,6c0,.09-.05.14-.15.14h-3.29q-.12,0-.12-.09v-6a2.55,2.55,0,0,0-.74-1.82,2.44,2.44,0,0,0-1.83-.78h-1.92l0,8.58c0,.09,0,.14-.12.14Zm3.44-12.22h2.51a2.24,2.24,0,0,0,1.6-.67,2.22,2.22,0,0,0,0-3.23,2.2,2.2,0,0,0-1.61-.67h-2.51Z"/><path d="M139.92,31.5c-.08,0-.11-.05-.11-.14l0-20c0-.08,0-.11.12-.11h9.36c.08,0,.12,0,.12.14v3.27a.11.11,0,0,1-.12.12h-6v4.54h6a.11.11,0,0,1,.12.12l0,3.3c0,.07,0,.11-.12.11h-6v5.11h6c.08,0,.12,0,.12.14v3.33c0,.07,0,.11-.12.11Z"/></svg>